<svg id="Layer_1" data-name="Layer 1" xmlns="http://www.w3.org/2000/svg" xmlns:xlink="http://www.w3.org/1999/xlink" viewBox="0 0 239.99 239.99"><defs><style>.cls-1{fill:none;}.cls-2{clip-path:url(#clip-path);}</style><clipPath id="clip-path" transform="translate(0 0.23)"><rect class="cls-1" width="239.76" height="240.72"/></clipPath></defs><title>icon_34</title><g class="cls-2"><path d="M120-.23a120,120,0,1,0,120,120A120,120,0,0,0,120-.23Zm-48.41,169-29.74,8L50,146.33a65.3,65.3,0,1,1,21.6,22.42Zm126.62,20.6-27.06-7.25a59.39,59.39,0,0,1-55.1,4.38A73.53,73.53,0,0,0,173.46,83.2a59.38,59.38,0,0,1,17.34,78.52Zm0,0" transform="translate(0 0.23)"/></g></svg>