<svg id="Capa_1" data-name="Capa 1" xmlns="http://www.w3.org/2000/svg" viewBox="0 0 450 512"><title>icon_37</title><path d="M31.29,180,57.56,471.07A44.8,44.8,0,0,0,102.39,512H347.6a44.8,44.8,0,0,0,44.83-40.93L418.7,180ZM147.95,452h-.68a15,15,0,0,1-15-14.31l-9.55-212A15,15,0,0,1,137.05,210c9.37-.27,15.29,6.05,15.64,14.29l9.55,212A15,15,0,0,1,147.95,452ZM240,437a15,15,0,0,1-30,0V225a15,15,0,0,1,30,0Zm77.69.69a15,15,0,0,1-15,14.31H302a15,15,0,0,1-14.3-15.68l9.55-212c.38-8.24,6.33-14.44,15.65-14.29a15,15,0,0,1,14.29,15.67Z"/><path d="M375,60H330V45A45.05,45.05,0,0,0,285,0H165a45,45,0,0,0-45,45V60H75A75.08,75.08,0,0,0,0,135v15H450V135A75.09,75.09,0,0,0,375,60Zm-75,0H150V45a15,15,0,0,1,15-15H285a15,15,0,0,1,15,15Z"/></svg>