<svg id="Layer_1" data-name="Layer 1" xmlns="http://www.w3.org/2000/svg" viewBox="0 0 46.4 46.4"><title>icon_38</title><path d="M20.8,0a.8.8,0,0,0,0,1.6,2.4,2.4,0,0,1,2.25,1.6h1.66A4,4,0,0,0,20.8,0Zm0,0"/><path d="M25.6,0a.8.8,0,0,0,0,1.6,2.39,2.39,0,0,1,2.25,1.6h1.67A4,4,0,0,0,25.6,0Zm0,0"/><path d="M30.4,0a.8.8,0,0,0,0,1.6,2.39,2.39,0,0,1,2.25,1.6h1.67A4,4,0,0,0,30.4,0Zm0,0"/><path d="M30.4,20a4,4,0,1,0,4,4,4,4,0,0,0-4-4Zm0,0"/><path d="M46.4,13.6V3.2H34.32a4.14,4.14,0,0,1,.08.8,4,4,0,0,1-4,4,.8.8,0,0,1,0-1.6,2.37,2.37,0,0,0,2.25-3.2H29.52a4.22,4.22,0,0,1,.08.8,4,4,0,0,1-4,4,.8.8,0,1,1,0-1.6,2.37,2.37,0,0,0,2.25-3.2H24.72a3.92,3.92,0,0,1,.08.8,4,4,0,0,1-4,4,.8.8,0,0,1,0-1.6A2.4,2.4,0,0,0,23.2,4a2.49,2.49,0,0,0-.14-.8H19.92A3.85,3.85,0,0,1,20,4a4,4,0,0,1-4,4,.8.8,0,0,1,0-1.6,2.38,2.38,0,0,0,2.25-3.2H13.75a2.39,2.39,0,0,1,4.51,0h1.66a4,4,0,0,0-7.84,0H0V13.6Zm0,0"/><path d="M0,15.2V46.4H46.4V15.2ZM18.4,40.8H12a.8.8,0,1,1,0-1.6h2.4V21.13L11,24.57a.8.8,0,0,1-1.13-1.13l4.8-4.8a.83.83,0,0,1,.26-.17.8.8,0,0,1,1,.43.83.83,0,0,1,.06.3v20h2.4a.8.8,0,1,1,0,1.6ZM36,35.2a5.6,5.6,0,1,1-11.2,0,.8.8,0,1,1,1.6,0,4,4,0,0,0,8,0V27.91A5.59,5.59,0,1,1,36,24Zm0,0"/></svg>