<svg id="Layer_1" data-name="Layer 1" xmlns="http://www.w3.org/2000/svg" viewBox="0 0 41.6 41.6"><title>icon_36</title><path d="M20.8,0A20.8,20.8,0,1,0,41.6,20.8,20.83,20.83,0,0,0,20.8,0Zm1.6,32.8a1.6,1.6,0,0,1-3.2,0V31.2a1.6,1.6,0,0,1,3.2,0Zm2.3-13.15a5.32,5.32,0,0,0-2.3,4.47V26.4a1.6,1.6,0,1,1-3.2,0V24.13A8.42,8.42,0,0,1,23,17a4,4,0,0,0,1.84-3.42A4.08,4.08,0,0,0,20.86,9.6,3.8,3.8,0,0,0,18,10.75,4,4,0,0,0,16.8,13.6a1.6,1.6,0,0,1-3.2,0,7.2,7.2,0,0,1,7.2-7.2h.1A7.25,7.25,0,0,1,28,13.5a7.16,7.16,0,0,1-3.3,6.16Zm0,0"/></svg>