<svg id="Layer_1" data-name="Layer 1" xmlns="http://www.w3.org/2000/svg" xmlns:xlink="http://www.w3.org/1999/xlink" viewBox="0 0 240 240"><defs><style>.cls-1{fill:none;}.cls-2{clip-path:url(#clip-path);}</style><clipPath id="clip-path" transform="translate(0 0.24)"><rect class="cls-1" width="239.76" height="240.72"/></clipPath></defs><title>icon_39</title><g class="cls-2"><path d="M120-.24a120,120,0,1,0,120,120A120,120,0,0,0,120-.24ZM32.59,165c0-37.48,32.92-37.48,40.23-47.28l.84-4.47C63.38,108,56.14,95.47,56.14,80.8c0-19.32,12.57-35,28.07-35,12.2,0,22.56,9.73,26.43,23.29-15.53,4.93-27,21.77-27,41.79,0,13.78,5.43,26.45,14.35,34.5-1.43.73-3,1.48-4.4,2.13-7.19,3.38-17.16,8.06-24.35,17.45ZM120.36,195h-52c0-37.48,32.92-37.47,40.23-47.27l.84-4.47c-10.26-5.2-17.51-17.74-17.51-32.41,0-19.33,12.57-35,28.07-35s28.07,15.66,28.07,35c0,14.54-7.11,27-17.24,32.29l1,5.08c8,9.33,39.84,9.93,39.84,46.79ZM170.76,165h0c-7.2-9.38-17.16-14.07-24.36-17.44-1.41-.66-3-1.4-4.38-2.12,8.91-8.06,14.35-20.75,14.35-34.5,0-20-11.48-36.84-27-41.78,3.86-13.57,14.22-23.3,26.43-23.3,15.5,0,28.07,15.67,28.07,35,0,14.54-7.12,27-17.24,32.29l.95,5.08c8,9.33,39.84,9.93,39.84,46.79Zm0,0" transform="translate(0 0.24)"/></g></svg>